PathFileType	4	(X/Y/Z)	Patient4_TMGait_0pt6_01_right_15.trc.trc
DataRate	CameraRate	NumFrames	NumMarkers	Units	OrigDataRate	OrigDataStartFrame	OrigNumFrames
80.000000000000	80.000000000000	4	33	mm	80.000000000000	106	       141
Frame#	Time	Sacral			L.Shoulder			Chest			R.Shoulder			Neck			R.ASIS			L.ASIS			R.Thigh.Superior			R.Thigh.Lateral			R.Thigh.Inferior			R.Patella			L.Thigh.Superior			L.Thigh.Lateral			L.Thigh.Inferior			L.Patella			L.Shank.Superior			L.Shank.Lateral			L.Shank.Inferior			R.Shank.Superior			R.Shank.Lateral			R.Shank.Inferior			R.Heel			R.Midfoot.Superior			R.Midfoot.Lateral			R.Toe			L.Heel			L.Midfoot.Lateral			L.Midfoot.Superior			L.Toe			L.Elbow			L.Wrist			R.Elbow			R.Wrist			
		X1	Y1	Z1	X2	Y2	Z2	X3	Y3	Z3	X4	Y4	Z4	X5	Y5	Z5	X6	Y6	Z6	X7	Y7	Z7	X8	Y8	Z8	X9	Y9	Z9	X10	Y10	Z10	X11	Y11	Z11	X12	Y12	Z12	X13	Y13	Z13	X14	Y14	Z14	X15	Y15	Z15	X16	Y16	Z16	X17	Y17	Z17	X18	Y18	Z18	X19	Y19	Z19	X20	Y20	Z20	X21	Y21	Z21	X22	Y22	Z22	X23	Y23	Z23	X24	Y24	Z24	X25	Y25	Z25	X26	Y26	Z26	X27	Y27	Z27	X28	Y28	Z28	X29	Y29	Z29	X30	Y30	Z30	X31	Y31	Z31	X32	Y32	Z32	X33	Y33	Z33	

106	18.932500000000	626.315937170368	1014.865531669061	413.973207748048	812.638474752444	1447.051675230822	249.715564967068	906.827522950108	1372.882353649988	413.013321522704	813.715660990043	1438.500332229849	584.483128812510	788.005633259882	1502.418160219101	404.363855307565	849.373718276807	952.141194824412	540.103164583542	847.829772080278	967.449535988539	265.697929393617	937.408581646857	791.454375315474	510.064701488734	906.603255042687	668.776999482564	584.508455555871	996.001080593835	632.472652343399	503.699237069601	1023.533367799957	524.467411661691	527.351001652571	876.983482116142	744.425844246406	304.551590761507	779.347314765304	634.561468608038	245.370796232351	850.829818841802	552.175344996542	316.071602053132	843.216361613471	483.964900569836	330.151897172670	815.458819492446	413.799311290277	323.170286446650	723.889971398502	301.781917591359	272.771249734138	762.994095950451	191.969178335753	351.601505781788	960.359225413390	441.481542839765	535.186569692067	849.927926110304	378.892494934389	595.537185526074	858.191316457244	268.981752079054	546.796480876310	674.875664680119	165.334252835847	519.755423972334	851.561915783776	144.551695160344	557.973327587787	745.625236007845	115.617782756123	589.437050025516	940.290687536583	49.203108078003	577.909182743326	626.342328531786	39.236760613013	393.211884782230	702.404939472428	35.414200294534	314.519052956617	785.899599870956	96.013370395939	343.015806658857	914.589072744841	40.333680942714	317.460219189914	856.956611409324	1116.153755029499	87.202323273618	1080.926684004734	981.840939999410	96.073439796425	722.304407345477	1095.616278200983	679.947677584421	741.369628963103	834.116112866464	683.141602478947	
107	18.945000000000	625.420500062617	1014.653942269652	413.111772559881	812.881584331148	1447.098039002900	249.460194597989	906.124478408447	1372.800150935274	413.207039065406	812.119713572642	1438.434470676230	584.161508239302	787.324896924721	1502.319612691505	403.991268115435	848.378502163537	952.356407524178	540.084539936759	847.149789403807	967.150344074499	265.669235346664	936.934583434374	792.608261668112	509.963922961646	907.110157757208	669.821875592598	584.801573267748	996.177229821287	633.918598973002	503.595026594264	1025.496757940556	528.033820612524	527.524576441488	874.575925052682	743.466330647440	304.706141731835	775.852843508467	634.420585732293	244.928384307142	846.141081313512	551.357363372984	315.806324969108	837.802468675729	483.311731809538	329.796401611603	809.808171401103	413.341680216102	322.847594367195	717.687475560037	301.793461907559	272.426770067075	756.069237759529	191.785854316924	351.348603381016	966.824978903835	443.231765187774	535.687200171678	860.920454802173	374.087074309537	596.621331246884	875.831127769869	264.823774288698	547.832230079023	699.448611139220	149.837173199278	521.176601794532	877.010133511989	140.210474072920	559.395960424625	773.157459229946	105.168188134559	591.353671267485	971.491810222536	50.710143834374	580.179498663355	618.864821584881	39.401474735269	393.088292781428	694.911579820110	35.415338912160	314.502088907560	778.444134423094	95.985253977269	342.902533900979	907.090004045169	40.206261852972	317.438126068323	862.805115808634	1117.922401507000	86.306540582875	1092.569421216788	994.139017386045	96.274778620316	713.110090349035	1098.157747741613	678.844736234905	722.023710089284	836.326525734085	682.485012061448	
108	18.957500000000	624.657285617298	1014.314091161338	412.424734574085	813.030131398552	1446.987551725176	249.297623543082	905.432079282550	1372.614069614920	413.451683444518	810.638412798802	1438.336157999312	583.919400041766	786.652261429944	1502.112442198084	403.685019946345	847.497276986719	952.360566687793	540.151336716995	846.456688473294	966.750334169319	265.701464379302	936.032260353411	792.994527513321	510.001707034537	906.695381952467	670.215991914709	585.234622929761	995.388879360927	634.471014860654	503.721726874343	1026.299055566988	530.926395428650	527.812577657256	872.250097982896	742.486522947307	304.748816227916	772.350750762286	634.274464977784	244.489548797795	841.502186785885	550.535482848251	315.447941743283	832.472366838836	482.661807214002	329.341200647610	804.202073862160	412.877077660086	322.450273318655	711.457384128947	301.830203031788	272.041031723020	749.162918368591	191.612007162260	351.032765496727	972.379837110366	444.622730936155	536.304184711916	871.657695364153	369.015599675486	597.956583134452	893.333548419267	260.865273948698	549.008789982885	724.838011999095	134.756276963574	522.824858909999	902.646372085851	136.391782811773	560.858072725179	801.281800966838	95.297357571434	593.399544969917	1002.597549180052	53.071213574687	582.300623487120	611.386994950378	39.583708322105	392.944200222574	687.417509748952	35.411929113766	314.471723138412	770.989968385879	95.953227091492	342.760641116487	899.585748221841	40.075530829622	317.411744736721	868.408421613472	1119.518332933911	85.699419612142	1103.298248896243	1006.225276798680	96.767007624537	704.129206291638	1100.885645739427	677.880796942010	704.102380649457	839.167558555596	681.820194651899	
109	18.970000000000	624.059652590142	1013.845561295766	411.930402765942	813.064593045867	1446.725726454269	249.220621396031	904.744880298499	1372.341459693464	413.739088122205	809.274532871341	1438.222655361204	583.754369122146	785.976597320418	1501.807125954403	403.441245577885	846.748335951353	952.165519788553	540.305316930463	845.807646114635	966.283574199666	265.792658502036	934.718935039861	792.614000789445	510.188141270789	905.382447099737	669.961802491946	585.812471987875	993.694424966634	634.148612381182	504.094988861785	1025.995406604925	533.123059444251	528.190874721325	869.990245661919	741.493970110094	304.682402601803	768.815447464197	634.142089881698	244.061920254882	836.883394693775	549.721980213730	315.000235949347	827.187600747218	482.024177014922	328.790798252921	798.605589161556	412.422735111980	321.975214056103	705.161380253392	301.906256424516	271.618202177711	742.261979243914	191.462773123815	350.652180588620	977.007463940995	445.679276071491	537.014912471654	882.058032852987	363.840678768100	599.501593635166	910.486791424323	257.274222757127	550.274982587667	750.704105254539	120.493808635643	524.637277268221	928.136756163986	133.245671932172	562.274479612747	829.616209337783	86.282729710842	595.477268900589	1033.163888439928	56.313847533571	584.152665401348	603.900908791586	39.789694269491	392.782306586311	679.920457797369	35.406931277751	314.427018100745	763.537006384425	95.920529789746	342.587598165218	892.073766667838	39.943875909769	317.381572691635	873.765404178088	1120.930649195430	85.381224535829	1113.102019297865	1017.962447244429	97.531575824939	695.482798263058	1103.762901134073	677.070101578605	687.640003809961	842.437788775802	681.214647644714	
